<?xml version="1.0" encoding="UTF-8"?>
<!DOCTYPE svg PUBLIC "-//W3C//DTD SVG 1.1//EN" "http://www.w3.org/Graphics/SVG/1.1/DTD/svg11.dtd">
<!-- Creator: CorelDRAW X7 -->
<svg xmlns="http://www.w3.org/2000/svg" xml:space="preserve" width="512px" height="512px" version="1.1" style="shape-rendering:geometricPrecision; text-rendering:geometricPrecision; image-rendering:optimizeQuality; fill-rule:evenodd; clip-rule:evenodd"
viewBox="0 0 512 512"
 xmlns:xlink="http://www.w3.org/1999/xlink">
 <defs>
  <style type="text/css">
   <![CDATA[
    .fil3 {fill:#FCD0BB;fill-rule:nonzero}
    .fil12 {fill:#E5EAE9;fill-rule:nonzero}
    .fil15 {fill:#DDE0DF;fill-rule:nonzero}
    .fil6 {fill:#D3AE9A;fill-rule:nonzero}
    .fil7 {fill:#D2D7D9;fill-rule:nonzero}
    .fil14 {fill:#C39E8A;fill-rule:nonzero}
    .fil17 {fill:#9D7F70;fill-rule:nonzero}
    .fil10 {fill:#8A695A;fill-rule:nonzero}
    .fil0 {fill:#A9AEAD;fill-rule:nonzero}
    .fil9 {fill:#765C4F;fill-rule:nonzero}
    .fil8 {fill:#715238;fill-rule:nonzero}
    .fil11 {fill:#A3D7C5;fill-rule:nonzero}
    .fil5 {fill:#989794;fill-rule:nonzero}
    .fil19 {fill:#96A9AD;fill-rule:nonzero}
    .fil2 {fill:#96A8AD;fill-rule:nonzero}
    .fil21 {fill:#8C8F90;fill-rule:nonzero}
    .fil1 {fill:#90C2B2;fill-rule:nonzero}
    .fil16 {fill:#45342C;fill-rule:nonzero}
    .fil20 {fill:#6D7072;fill-rule:nonzero}
    .fil18 {fill:#372B29;fill-rule:nonzero}
    .fil4 {fill:#648C92;fill-rule:nonzero}
    .fil13 {fill:#46797F;fill-rule:nonzero}
   ]]>
  </style>
 </defs>
 <g id="Layer_x0020_1">
  <metadata id="CorelCorpID_0Corel-Layer"/>
  <path class="fil0" d="M227 381c12,-1 69,1 80,5 -3,-21 -29,-62 -29,-62l-45 2 -6 55z"/>
  <path class="fil1" d="M236 201c-1,12 -12,96 -10,115 25,0 43,1 43,1l3 -116c0,0 -36,-3 -36,0z"/>
  <path class="fil2" d="M188 318c0,4 18,2 18,0 -1,-3 -16,-5 -18,0z"/>
  <path class="fil3" d="M190 317c1,4 0,11 -1,14 -1,3 -2,10 -3,16 0,7 2,9 5,10 3,1 9,4 13,0 0,-1 -5,-23 -3,-22 2,0 3,9 5,10 2,1 3,0 3,-1 -1,-4 -2,-10 -3,-14 0,-4 -3,-2 -4,-5 0,-3 0,-9 0,-9l-12 1z"/>
  <path class="fil4" d="M190 323c0,-1 1,-2 1,-3 0,0 0,0 0,0 0,1 -1,2 -1,3 0,0 0,0 0,0zm12 -1l0 0c0,-1 0,-2 0,-3l0 0c0,1 0,2 0,3z"/>
  <path class="fil5" d="M191 320c0,0 0,0 0,0 0,-1 0,-2 -1,-3l0 0c1,1 1,2 1,3zm11 -1c0,-2 0,-3 0,-3l0 0c0,0 0,1 0,3l0 0z"/>
  <path class="fil6" d="M190 323c0,-1 1,-2 1,-3 0,-1 0,-2 -1,-3l12 -1c0,0 0,1 0,3 0,1 0,2 0,3 -1,0 -3,0 -4,0 -2,0 -5,0 -8,1z"/>
  <path class="fil7" d="M211 388c8,5 23,5 23,5 -1,-17 -3,-165 6,-194 -5,0 -17,3 -20,5 -3,2 -34,67 -32,115 9,-3 18,-1 18,-1 0,-15 12,-70 12,-70 -1,25 -12,110 -7,140z"/>
  <path class="fil8" d="M223 116c-7,1 -16,-9 0,-24 1,-1 5,2 5,2 3,-13 7,-13 9,-14 1,0 14,16 18,17 1,-3 1,-5 3,-4 1,1 6,6 13,7 7,1 15,2 11,13 11,2 7,6 4,14 -4,8 -2,17 -2,17l-7 2c0,0 -49,-18 -54,-30z"/>
  <path class="fil3" d="M246 178c0,5 2,15 0,18 -3,3 -6,3 -6,3 9,12 14,15 29,-2 -1,0 -2,0 -2,0 0,1 0,1 0,-1 0,-2 -1,-20 -1,-20l-20 2z"/>
  <path class="fil4" d="M247 193c0,0 0,0 0,0 0,-3 0,-7 -1,-10l0 0c1,3 1,7 1,10zm20 -2c0,-3 -1,-7 -1,-10l0 0c0,3 1,7 1,10l0 0z"/>
  <path class="fil6" d="M252 193c-2,0 -3,0 -5,0 0,-3 0,-7 -1,-10 2,0 4,0 6,0 5,0 9,0 14,-2 0,3 1,7 1,10 -5,1 -10,2 -15,2z"/>
  <path class="fil9" d="M245 210c1,4 3,7 3,7l2 1 6 -7 -5 -4 -6 3z"/>
  <path class="fil10" d="M248 216c-3,8 -10,71 -10,77 0,7 5,16 6,16 2,-1 8,-10 8,-14 1,-4 -1,-73 -1,-79 0,0 -3,0 -3,0z"/>
  <path class="fil11" d="M247 194c-4,3 -9,5 -9,5 2,8 3,13 5,16 3,-5 8,-8 8,-8 2,4 6,9 6,9 4,-2 13,-11 14,-19 -1,-1 -4,-3 -4,-3 -2,3 -14,12 -16,12 -3,-1 -4,-12 -4,-12z"/>
  <path class="fil12" d="M240 198c-2,1 -7,1 -8,2 -2,7 -3,25 -3,25l4 -2c-3,3 -4,5 -4,5 0,0 -1,33 5,44 1,-17 3,-57 6,-74z"/>
  <path class="fil2" d="M295 271c-1,0 5,14 9,14 2,-6 -1,-15 -9,-14z"/>
  <polygon class="fil3" points="300,270 290,274 297,284 304,281 "/>
  <polygon class="fil6" points="297,284 290,274 300,270 304,281 301,282 "/>
  <path class="fil7" d="M270 197c5,1 14,1 18,3 4,2 51,37 49,57 -2,12 -27,28 -33,28 -2,-12 -9,-14 -9,-14 9,-5 19,-20 17,-23 -7,-11 -23,-17 -23,-17 -5,28 1,65 12,101 11,36 18,57 18,57 -15,9 -34,6 -34,6 -10,-21 -35,-119 -15,-198z"/>
  <path class="fil12" d="M278 198c-2,7 -6,25 -6,25l-4 -1 3 5c0,0 -9,53 -10,67 -1,-26 0,-69 9,-97 5,0 8,1 8,1z"/>
  <path class="fil3" d="M234 107c-11,6 -13,7 -11,23 3,16 5,32 4,45 0,5 27,15 50,2 2,-21 2,-49 -3,-61 -4,-13 -24,-17 -40,-9z"/>
  <path class="fil13" d="M266 181l0 0c4,-1 7,-2 11,-4 0,-1 0,-3 0,-4 0,1 0,3 0,4 -4,2 -7,3 -11,4z"/>
  <path class="fil13" d="M227 175c0,-2 0,-5 0,-8 0,0 0,0 0,0 0,3 0,6 0,8z"/>
  <path class="fil14" d="M252 183c-14,0 -25,-5 -25,-8l0 0c0,-2 0,-5 0,-8 3,3 5,5 7,5 0,0 0,0 0,0 1,0 -2,-6 0,-6 0,0 0,0 0,0 1,0 2,0 3,0 1,0 2,0 4,0 5,0 12,-1 20,-7 1,0 1,0 1,0 2,0 0,6 2,6 0,0 0,0 0,0 1,0 9,-6 10,-9 0,-2 -2,-9 -1,-12 1,-1 1,-1 1,-1 2,0 2,1 2,1 1,3 1,7 2,12 0,5 -1,11 -1,17 0,1 0,3 0,4 -4,2 -7,3 -11,4 -5,2 -9,2 -14,2z"/>
  <path class="fil15" d="M262 259c0,0 0,1 -1,1l-13 6c0,0 -1,0 -1,-1l-3 -6c0,-1 0,-1 1,-2l13 -5c0,-1 1,0 1,0l3 7z"/>
  <path class="fil16" d="M302 310c1,0 0,1 0,1l-44 19c0,0 -1,0 -1,0l-27 -61c0,-1 1,-1 1,-1l44 -19c0,-1 1,0 1,0l26 61z"/>
  <path class="fil3" d="M293 273c-5,-7 -8,-11 -10,-10 -3,1 -17,11 -16,13 0,3 8,11 10,11 1,1 10,-7 11,-5 1,1 3,5 6,6 3,0 6,-4 6,-5 -1,-1 -7,-10 -7,-10z"/>
  <path class="fil3" d="M276 145c1,-11 15,-7 14,1 -1,8 -10,16 -13,9 -1,-8 -1,-10 -1,-10z"/>
  <path class="fil17" d="M247 162c0,0 0,0 -1,0 0,-1 -1,-1 -2,-2 -1,-1 -1,-1 -2,-2 0,-1 0,-2 0,-3 1,-2 2,-3 2,-5 1,-4 1,-7 1,-10 0,-1 -1,-2 -1,-3 0,0 0,-1 0,-1 0,0 0,1 1,1 0,1 0,2 1,3 0,3 1,6 -1,10 0,2 -1,4 -1,6 -1,1 0,2 0,3 1,1 2,2 3,2 0,0 1,1 0,1z"/>
  <path class="fil18" d="M265 143c0,1 -1,0 -2,-1 0,-1 -1,-1 -2,-2 0,-1 -1,-1 -2,-1 0,-1 0,-1 0,-1 0,0 0,1 -1,1 0,0 0,1 -1,2 0,1 0,2 -1,2 0,0 0,-1 0,-3 0,0 0,-1 0,-3 1,0 1,-1 2,-1 1,0 2,0 3,0 1,1 2,2 2,3 1,0 1,1 2,2 0,1 0,2 0,2z"/>
  <path class="fil18" d="M237 145c0,0 -1,-1 -2,-2 0,0 -1,-1 -1,-1 -1,-1 -2,-2 -2,-2 -1,0 -1,0 -1,0 0,0 0,0 -1,1 0,0 0,1 0,1 -1,2 -1,3 -1,3 -1,0 -1,-1 -1,-3 0,-1 0,-2 0,-3 1,0 1,-1 2,-1 1,-1 2,-1 2,0 2,0 3,1 3,2 1,1 2,1 2,2 1,1 1,2 0,3z"/>
  <path class="fil8" d="M254 120c0,2 0,8 1,8 0,0 5,-3 13,4 1,-2 1,-5 0,-7 -1,-3 -11,-8 -14,-5z"/>
  <path class="fil8" d="M231 121c1,2 2,8 2,8 -1,0 -5,-2 -9,6 -1,-2 -2,-6 -2,-7 1,-4 7,-10 9,-7z"/>
  <path class="fil8" d="M224 105c7,5 22,6 30,3 9,2 18,7 19,7 -1,8 -2,12 -1,17 1,5 1,11 1,14 -1,2 3,4 3,4 1,-5 2,-10 2,-11 1,-2 0,-16 -2,-22 -2,-7 -18,-27 -52,-12z"/>
  <path class="fil17" d="M259 164c0,0 0,0 -1,1 0,0 0,1 0,1 0,0 -1,1 -1,1 -1,2 -3,4 -7,5 -1,1 -3,1 -4,1 -2,0 -3,-1 -4,-1 -2,-1 -3,-2 -3,-2 0,0 1,1 3,1 1,0 2,1 4,1 1,0 2,0 4,-1 3,-1 5,-3 6,-4 1,-1 1,-1 1,-1 1,-1 1,-1 1,-1 0,-1 1,-1 1,-1z"/>
  <path class="fil17" d="M280 153c0,0 1,0 2,-1 1,-1 1,-2 1,-3 0,0 -1,0 -1,0 0,-1 -1,-1 -1,-1 0,0 0,1 0,1l-1 0c0,0 0,0 -1,0 0,0 0,0 0,-1 1,0 1,0 1,-1l0 0 0 0c0,-1 0,-1 0,-2 0,0 0,0 1,0 0,-1 0,-1 0,-1l0 0c1,-1 1,-1 2,-1 0,-1 1,-1 2,0 1,0 1,1 1,1 1,1 1,1 1,1 0,0 -1,0 -1,-1 0,0 -1,0 -2,-1 0,0 -1,1 -2,1l0 1 0 0c0,0 -1,1 -1,1 0,0 0,1 0,1l0 0 0 0 0 0 0 0c0,0 0,0 0,0 1,0 1,0 1,0 1,1 2,1 2,2 0,1 0,1 0,2 0,0 0,0 0,1 -1,0 -1,0 -1,0 0,1 -1,1 -1,1 0,0 -1,0 -1,0 0,0 -1,0 -1,0z"/>
  <path class="fil17" d="M285 268c0,0 -1,0 -1,0 0,1 -1,1 -2,2 -1,1 -3,2 -5,4 -4,3 -7,6 -8,6 0,-1 3,-4 7,-7 2,-2 4,-3 6,-4 1,0 1,-1 2,-1 0,0 1,0 1,0z"/>
  <path class="fil17" d="M271 283c0,0 3,-3 8,-6 4,-3 8,-5 8,-5 0,0 -3,3 -7,6 -5,3 -8,5 -9,5z"/>
  <path class="fil17" d="M289 276c0,1 -3,3 -7,5 -4,3 -7,4 -8,4 0,0 3,-3 7,-5 4,-2 7,-4 8,-4z"/>
  <path class="fil17" d="M199 359c0,0 0,0 -1,-1 0,0 0,-1 0,-2 -1,-1 -1,-4 -2,-6 0,-6 0,-10 0,-10 1,0 1,4 2,9 0,3 0,5 1,7 0,1 0,2 0,2 0,1 0,1 0,1z"/>
  <path class="fil17" d="M194 358c0,0 0,-1 -1,-2 0,-2 -1,-4 -1,-7 0,-2 0,-4 0,-6 0,-2 1,-3 1,-3 0,1 0,2 0,3 0,2 0,4 0,6 1,3 1,5 1,7 0,1 1,2 0,2z"/>
  <path class="fil17" d="M190 356c0,0 -1,0 -1,-2 -1,-1 -1,-3 -1,-6 0,-2 1,-4 1,-5 0,-2 1,-3 1,-3 0,1 0,1 0,3 0,1 0,3 0,5 0,3 0,5 0,6 0,1 0,2 0,2z"/>
  <path class="fil19" d="M217 257c0,0 0,-1 0,-2 0,-1 0,-2 0,-2 0,-1 0,-2 0,-4 1,-4 1,-10 1,-17 1,-7 2,-13 2,-18 1,-4 2,-7 2,-7 0,0 0,3 -1,7 0,5 -1,11 -1,18 -1,7 -1,13 -2,18 0,1 0,2 0,3 0,1 0,1 0,2 -1,1 -1,2 -1,2z"/>
  <path class="fil19" d="M319 251c0,0 1,0 3,0 2,0 3,0 4,0 1,0 1,0 1,0l0 0 0 0 0 0c-1,0 -2,-1 -2,-1 -4,-1 -7,-1 -9,-1 -3,0 -4,0 -4,0 0,0 1,-1 4,-1 2,0 5,0 9,1 1,0 2,0 3,1l0 0 0 1c0,0 0,1 0,1 0,0 0,0 -1,0 0,1 0,1 0,1 -2,0 -4,-1 -5,-1 -2,0 -3,-1 -3,-1z"/>
  <path class="fil19" d="M289 231c0,0 -1,0 -2,0 0,-1 -1,-2 -2,-3 -1,-2 -2,-6 -2,-10 0,-4 0,-8 0,-11 1,-2 1,-4 2,-4 0,0 -1,2 -1,4 0,3 0,7 0,11 1,4 1,7 2,10 1,1 1,2 2,2 0,1 1,1 1,1z"/>
  <path class="fil20" d="M235 213c2,-10 8,-18 12,-20 0,1 0,2 0,2 -4,3 -9,11 -10,18 0,0 0,0 0,1 0,0 0,0 -1,0 0,0 -1,-1 -1,-1z"/>
  <path class="fil20" d="M224 250c0,0 0,0 0,0 1,0 1,0 1,-1 0,0 0,-1 -1,-1 0,0 0,0 -1,0 0,-1 0,-1 0,-3 1,-10 3,-23 8,-29 2,-1 4,-2 6,-2l0 0c4,1 3,11 2,22 0,3 -1,7 -1,10 0,2 -2,2 -2,2 -1,0 -1,1 -1,1 0,1 0,1 1,1 1,0 4,-1 4,-4 0,-3 1,-7 1,-10 1,-12 2,-23 -4,-24l0 0c-3,0 -5,1 -7,3 -6,6 -8,20 -9,30 0,2 0,4 1,4 1,1 2,1 2,1z"/>
  <path class="fil21" d="M226 249c0,1 -1,2 -1,2 -1,0 -2,-1 -2,-2 1,-1 1,-1 2,-1 0,0 1,0 1,1z"/>
  <path class="fil21" d="M237 249c0,1 -1,2 -1,2 -1,0 -1,-1 -1,-2 0,-1 0,-2 1,-2 1,0 1,1 1,2z"/>
  <path class="fil20" d="M269 196c0,0 -2,-2 -2,-2 0,0 0,0 0,-1 0,0 3,1 4,3 1,2 -1,5 -3,10 -4,5 -9,13 -10,26 0,0 0,1 -1,1l0 0c-1,0 -1,-1 -1,-2 1,-13 7,-21 10,-27 2,-3 4,-6 3,-8z"/>
  <path class="fil20" d="M252 236c0,4 2,6 5,6 2,0 4,-2 4,-6 0,-3 -2,-6 -4,-6 -3,0 -5,3 -5,6z"/>
  <path class="fil15" d="M254 236c0,2 1,3 3,3 1,0 2,-1 2,-3 0,-1 -1,-3 -2,-3 -2,0 -3,2 -3,3z"/>
 </g>
</svg>
